<svg width="37" height="37" viewBox="0 0 37 37" fill="none" xmlns="http://www.w3.org/2000/svg">
<path d="M36.4407 10.891C36.2511 10.6066 36.0616 10.4171 35.872 10.2275L34.071 8.42654C31.5118 5.8673 27.3412 5.8673 24.6872 8.42654L9.61607 23.4976C8.95256 24.1611 7.81512 24.1611 7.15161 23.4976L6.58289 22.9289C5.91939 22.2654 5.91939 21.128 6.58289 20.4645L26.3933 0.654028C26.3933 0.654028 25.635 0.748815 25.5402 0.654028H17.9573C17.6729 0.843601 17.2938 1.12796 17.0094 1.41232L1.93834 16.4834C1.46441 16.9573 1.18005 17.3365 0.800903 17.8104V26.1517C1.08526 26.5308 1.36962 27.0047 1.74877 27.2891L2.12792 27.6682C5.16109 30.7014 10.1848 30.7014 13.3128 27.6682L29.0473 11.9336L31.8909 14.7772L10.9431 35.9147L10.6587 36.199C10.7535 36.2938 11.1327 36.1043 11.2274 36.199H19.0947C19.1895 36.1043 19.2843 36.0095 19.3791 35.9147L35.7772 19.5166C35.9668 19.327 36.2511 19.0427 36.3459 18.8531V10.891H36.4407Z" fill="#FF1F20"/>
</svg>
