<svg width="24" height="37" viewBox="0 0 24 37" fill="none" xmlns="http://www.w3.org/2000/svg">
<g opacity="0.7">
<path d="M17.9361 8.68045L11.9087 0.826569L6.06396 8.68045H7.52515V18.9088H16.4749V8.68045H17.9361Z" fill="url(#paint0_linear_525_1269)"/>
<path d="M6.06396 29.3197L11.9087 36.9909L17.9361 29.3197H16.4749V19.0914H7.52515V29.3197H6.06396Z" fill="url(#paint1_linear_525_1269)"/>
<path d="M19.7625 20.0046C19.7625 19.6393 19.7625 19.4567 19.7625 19.0914C19.7625 18.7261 19.7625 18.5434 19.7625 18.1781L18.1187 17.9955L17.5707 16.5343L18.6666 15.2558C18.3013 14.7078 17.936 14.1599 17.5707 13.7946L16.1095 14.5252L14.6484 13.6119L14.831 11.9681C14.2831 11.7854 13.7351 11.6028 13.1872 11.4201L12.4566 12.8813H10.8127L10.0821 11.6028C9.35155 11.7854 8.80361 11.9681 8.25566 12.1507L8.43831 13.7946L7.15977 14.7078L5.69859 14.1599C5.33329 14.5252 4.96799 15.0731 4.6027 15.621L5.69859 16.7169L5.33329 18.1781L3.68945 18.5434C3.68945 18.9087 3.68945 19.0914 3.68945 19.4567C3.68945 19.822 3.68945 20.0046 3.68945 20.3699L5.33329 20.5526L5.88123 22.0137L4.78534 23.2923C5.15064 23.8402 5.51594 24.3882 5.88123 24.7535L7.34242 24.0229L8.62096 24.9361L8.43831 26.58C8.98626 26.7626 9.5342 26.9452 10.2648 27.1279L10.9954 25.6667H12.6392L13.3698 27.1279C13.9178 26.9452 14.6484 26.7626 15.1963 26.58L15.0137 24.9361L16.2922 24.0229L17.7534 24.5708C18.1187 24.0229 18.484 23.6576 18.8493 23.1096L17.7534 22.0137L18.1187 20.5526L19.7625 20.0046ZM15.1963 23.2923C13.0045 25.1188 9.71685 24.9361 7.70772 22.7443C5.69859 20.5526 6.06388 17.2649 8.25566 15.2558C10.4474 13.4293 13.7351 13.6119 15.7442 15.8037C17.5707 18.1781 17.3881 21.4658 15.1963 23.2923Z" fill="#1E2632"/>
<path d="M13.918 9.22833H9.71704V10.3242H13.918V9.22833Z" fill="#1E2632"/>
<path d="M23.5983 26.2146H22.5024C22.5024 17.4475 18.6668 10.3242 14.1006 10.3242V9.22833C19.2147 9.22833 23.5983 16.7169 23.5983 26.2146Z" fill="#1E2632"/>
<path d="M1.68039 26.2146H0.401855C0.401855 16.7169 4.60277 9.22833 10.0822 9.22833V10.3242C5.33336 10.3242 1.68039 17.4475 1.68039 26.2146Z" fill="#1E2632"/>
<path d="M22.3196 36.0777V26.2147H23.5981V35.3471L22.3196 36.0777Z" fill="#1E2632"/>
<path d="M1.68039 36.0777L0.401855 35.3471V26.2147H1.68039V36.0777Z" fill="#1E2632"/>
</g>
<defs>
<linearGradient id="paint0_linear_525_1269" x1="11.9779" y1="18.8552" x2="11.9779" y2="0.896339" gradientUnits="userSpaceOnUse">
<stop stop-color="#1E2632"/>
<stop offset="0.0969903" stop-color="#1E2632" stop-opacity="0.0969903"/>
<stop offset="1" stop-color="#1E2632"/>
</linearGradient>
<linearGradient id="paint1_linear_525_1269" x1="11.9781" y1="19.1011" x2="11.9781" y2="37.0598" gradientUnits="userSpaceOnUse">
<stop stop-color="#1E2632" stop-opacity="0"/>
<stop offset="0.0969903" stop-color="#1E2632" stop-opacity="0.0969903"/>
<stop offset="1" stop-color="#1E2632"/>
</linearGradient>
</defs>
</svg>
