<svg width="31" height="22" viewBox="0 0 31 22" fill="none" xmlns="http://www.w3.org/2000/svg">
<g opacity="0.7">
<path d="M0.106445 9.40519H2.65964V21.0364H0.106445V9.40519Z" fill="#1E2632"/>
<path d="M0.106445 9.40519H7.19864V11.6747H0.106445V9.40519Z" fill="#1E2632"/>
<path d="M0.106445 13.9442H7.19864V16.2137H0.106445V13.9442Z" fill="#1E2632"/>
<path d="M0.106445 18.7669H7.19864V21.0364H0.106445V18.7669Z" fill="#1E2632"/>
<path fill-rule="evenodd" clip-rule="evenodd" d="M24.3618 21.0364C27.5736 21.0364 30.1774 18.4327 30.1774 15.2208C30.1774 12.0089 27.5736 9.40519 24.3618 9.40519C21.1499 9.40519 18.5462 12.0089 18.5462 15.2208C18.5462 18.4327 21.1499 21.0364 24.3618 21.0364ZM24.3618 18.7669C26.3202 18.7669 27.9079 17.1793 27.9079 15.2208C27.9079 13.2623 26.3202 11.6747 24.3618 11.6747C22.4033 11.6747 20.8157 13.2623 20.8157 15.2208C20.8157 17.1793 22.4033 18.7669 24.3618 18.7669Z" fill="#1E2632"/>
<path d="M14.4327 9.40519C11.2208 9.40519 8.61708 12.0089 8.61708 15.2208C8.61708 18.4327 11.2208 21.0364 14.4327 21.0364H17.2696V18.7669H14.4327C12.4742 18.7669 10.8866 17.1793 10.8866 15.2208C10.8866 13.2623 12.4742 11.6747 14.4327 11.6747H17.2696V9.40519H14.4327Z" fill="#1E2632"/>
<path d="M23.0852 0.327185C16.6836 -0.127544 15.2423 1.17554 15.1419 5.29172C17.0661 3.56129 18.1726 2.74864 20.2483 1.88746C18.2525 3.70822 17.3858 4.87732 16.1348 7.13568C20.3357 7.94628 21.9843 6.75147 23.0852 0.327185Z" fill="#1E2632"/>
</g>
</svg>
