<svg width="30" height="30" viewBox="0 0 30 30" fill="none" xmlns="http://www.w3.org/2000/svg">
<g opacity="0.7">
<path d="M14.9087 0.844727C7.0548 0.844727 0.662109 7.23742 0.662109 15.0913C0.662109 22.9452 7.0548 29.3379 14.9087 29.3379C22.7626 29.3379 29.1553 22.9452 29.1553 15.0913C29.1553 7.23742 22.7626 0.844727 14.9087 0.844727ZM15.6393 27.8767V26.2329H14.5434V27.8767C7.7854 27.694 2.30595 22.2146 1.94065 15.6392H3.76713V14.5434H1.94065C2.30595 7.78537 7.7854 2.30591 14.3607 1.94062V4.1324H15.4566V1.94062C22.2146 2.30591 27.6941 7.78537 27.8767 14.3607H26.0502V15.4566H27.8767C27.6941 22.2146 22.2146 27.694 15.6393 27.8767Z" fill="#1E2632"/>
<path d="M15.0914 17.2832C16.3019 17.2832 17.2832 16.3019 17.2832 15.0914C17.2832 13.8809 16.3019 12.8996 15.0914 12.8996C13.881 12.8996 12.8997 13.8809 12.8997 15.0914C12.8997 16.3019 13.881 17.2832 15.0914 17.2832Z" fill="#1E2632"/>
<path d="M15.274 15.4566L14.7261 15.0913L20.7535 9.42917L21.1188 9.79447L15.274 15.4566Z" fill="#1E2632"/>
<path d="M22.3974 12.1689L23.8586 6.68945L18.3792 8.15064L22.3974 12.1689Z" fill="#1E2632"/>
<path d="M15.0914 15.0912L14.7261 15.4565L10.1599 10.525L10.5252 10.1597L15.0914 15.0912Z" fill="#1E2632"/>
<path d="M12.3516 9.2465L7.96802 7.96796L9.24656 12.3515L12.3516 9.2465Z" fill="#1E2632"/>
</g>
</svg>
