<svg width="28" height="26" viewBox="0 0 28 26" fill="none" xmlns="http://www.w3.org/2000/svg">
<g opacity="0.7">
<path d="M24.5022 25.8767H21.3972V24.7808H24.5022C25.4155 24.7808 26.3287 24.0502 26.3287 22.9543V3.0456C26.3287 2.13236 25.5981 1.21912 24.5022 1.21912H2.94972C2.03648 1.21912 1.12323 1.94971 1.12323 3.0456V22.9543C1.12323 23.8675 1.85383 24.7808 2.94972 24.7808H6.42004V25.8767H2.94972C1.30588 25.8767 0.0273438 24.5981 0.0273438 22.9543V3.0456C0.0273438 1.40177 1.30588 0.12323 2.94972 0.12323H24.5022C26.1461 0.12323 27.4246 1.40177 27.4246 3.0456V22.9543C27.4246 24.5981 26.1461 25.8767 24.5022 25.8767Z" fill="#1E2632"/>
<path d="M18.2921 11.8127C18.2921 11.63 18.1095 11.63 18.2921 11.8127L17.7442 11.0821C17.1963 10.5342 16.1004 10.5342 15.5524 11.0821L12.0821 14.5524C11.8995 14.7351 11.7168 14.7351 11.5342 14.5524L11.3515 14.3698C11.1689 14.1871 11.1689 14.0045 11.3515 13.8218L15.9177 9.43826H15.7351H14.0912L13.9086 9.62091L10.4383 13.0912C10.2556 13.2739 10.2556 13.2739 10.2556 13.4565V15.283C10.2556 15.4657 10.4383 15.4657 10.4383 15.4657V15.6483C11.1689 16.3789 12.2647 16.3789 12.9953 15.6483L16.6483 11.9953L17.3789 12.7259L12.4474 17.6574H12.63H14.4565L18.2921 13.8218L18.4748 13.6392V11.8127H18.2921Z" fill="#1E2632"/>
<path d="M18.84 18.2055H9.15967V8.70779H19.0227V18.2055H18.84ZM10.2556 16.927H17.7441V9.80368H10.2556V16.927Z" fill="#1E2632"/>
<path d="M8.24653 0.671265H7.15063V25.5114H8.24653V0.671265Z" fill="#1E2632"/>
<path d="M20.4838 0.671265H19.3879V25.5114H20.4838V0.671265Z" fill="#1E2632"/>
<path d="M21.945 24.5982H4.95874V25.6941H21.945V24.5982Z" fill="#1E2632"/>
</g>
</svg>
