<svg width="35" height="33" viewBox="0 0 35 33" fill="none" xmlns="http://www.w3.org/2000/svg">
<g opacity="0.7">
<path d="M30.4339 32.6941H0.114258V6.57534H11.0732V0.365296L12.3517 0.182648V7.67123H1.21015V31.4155L31.3471 31.5982L30.4339 32.6941Z" fill="#1E2632"/>
<path d="M34.4522 24.1096H26.5983V7.67123H16.918V0L18.0139 0.182648V6.57534H27.8769V22.831H34.8175L34.4522 24.1096Z" fill="#1E2632"/>
<path d="M19.8403 24.8402L15.6394 27.5799L19.8403 30.3196V29.589H22.9453L26.4157 25.5708H19.8403V24.8402Z" fill="url(#paint0_linear_525_1302)"/>
<path d="M34.0868 25.5708H32.991L28.79 29.589H32.443L34.0868 25.5708Z" fill="url(#paint1_linear_525_1302)"/>
<path d="M12.169 25.5708C11.9863 25.7534 9.06396 23.7443 9.06396 20.8219C9.06396 18.8128 10.3425 17.1689 10.7078 16.8036C10.8904 16.4384 10.8904 16.621 11.4384 15.8904C12.7169 14.4292 13.4475 13.6986 13.8128 12.968C14.3608 11.8721 14.5434 10.2283 14.3608 9.68036C14.3608 9.68036 14.1781 9.31506 14.1781 9.13242H14.3608C15.274 9.49771 15.822 10.9589 15.822 10.9589C16.1873 11.6895 16.5525 12.4201 16.5525 13.516C16.5525 13.516 16.5525 14.9772 15.822 16.4384C15.822 16.4384 15.822 16.4384 15.822 16.621C15.6393 16.8036 15.4567 17.5342 15.6393 18.0822C15.822 18.6301 16.3699 18.9954 16.7352 18.9954C16.7352 18.9954 17.4658 19.1781 18.0137 18.6301C18.379 18.2648 18.7443 17.7169 18.7443 17.5342V17.3516H18.927C19.4749 17.5342 19.8402 19.1781 19.8402 19.1781C20.0229 19.9087 20.2055 20.274 20.0229 21.0046C20.0229 21.1872 20.0229 23.0137 18.7443 24.4749C18.0137 25.3881 17.2831 25.5708 17.1005 25.7534C17.1005 25.7534 16.9178 25.9361 16.9178 25.7534C16.9178 25.7534 16.9178 25.7534 16.9178 25.5708C16.9178 25.5708 17.1005 25.2055 17.2831 24.8402C17.4658 24.2922 17.2831 23.7443 17.1005 23.5616C16.9178 23.0137 16.7352 22.831 16.3699 22.4657C16.0046 22.1005 16.0046 22.1005 15.274 21.3699C14.9087 20.8219 14.7261 20.6393 14.7261 20.4566C14.5434 20.0913 14.5434 19.5434 14.5434 19.5434C14.5434 18.9954 14.7261 18.8128 14.5434 18.8128C14.5434 18.8128 14.3608 18.9954 13.9955 19.3607C13.8128 19.726 13.6302 19.9087 13.4475 20.0913C13.2649 20.4566 13.2649 20.8219 13.2649 21.0046C13.2649 21.3699 13.2649 21.5525 13.4475 21.9178C13.6302 22.2831 13.6302 22.4657 13.6302 22.6484C13.6302 22.6484 13.8128 22.831 13.8128 23.0137C13.8128 23.0137 13.8128 23.1963 13.8128 23.379C13.8128 23.379 13.8128 23.5616 13.6302 23.5616C13.4475 23.7443 13.0822 23.7443 12.8996 23.5616C12.3516 23.379 12.3516 22.831 12.3516 22.6484C12.3516 22.6484 12.3516 22.831 12.169 23.0137C12.169 23.0137 12.169 23.1963 11.9863 23.1963C11.8037 23.379 11.8037 23.7443 11.8037 23.9269C11.8037 24.2922 11.8037 24.6575 11.8037 24.8402C11.9863 25.2055 12.169 25.5708 12.169 25.5708Z" fill="#1E2632"/>
<path d="M31.5298 24.8402L30.9819 24.2922L28.4248 26.8493C28.2421 26.8493 28.2421 26.8493 28.0595 26.8493C27.5115 26.8493 26.9636 27.3973 26.9636 27.9452C26.9636 28.1279 26.9636 28.1279 26.9636 28.3105L24.2239 30.6849L24.7718 31.2329L27.5115 28.4931C27.6942 28.4931 27.6942 28.4931 27.8768 28.4931C28.4248 28.4931 28.9727 27.9452 28.9727 27.3973C28.9727 27.2146 28.9727 27.032 28.9727 27.032L31.5298 24.8402Z" fill="#1E2632"/>
</g>
<defs>
<linearGradient id="paint0_linear_525_1302" x1="26.4734" y1="27.5764" x2="15.6628" y2="27.5764" gradientUnits="userSpaceOnUse">
<stop stop-color="#1E2632" stop-opacity="0"/>
<stop offset="0.0969903" stop-color="#1E2632" stop-opacity="0.0969903"/>
<stop offset="1" stop-color="#1E2632"/>
</linearGradient>
<linearGradient id="paint1_linear_525_1302" x1="29.3533" y1="26.7266" x2="33.5818" y2="28.4427" gradientUnits="userSpaceOnUse">
<stop stop-color="#1E2632" stop-opacity="0"/>
<stop offset="0.0969903" stop-color="#1E2632" stop-opacity="0.0969903"/>
<stop offset="1" stop-color="#1E2632"/>
</linearGradient>
</defs>
</svg>
