<svg width="18" height="36" viewBox="0 0 18 36" fill="none" xmlns="http://www.w3.org/2000/svg">
<g opacity="0.7">
<path d="M17.3106 12.1508L8.72608 0.826569L0.141602 12.1508H2.33338V27.1279H15.3014V12.1508H17.3106Z" fill="url(#paint0_linear_525_1251)"/>
<path d="M5.25584 35.3471C5.0732 35.5297 1.05493 32.79 1.05493 28.5891C1.05493 25.8494 2.88142 23.4749 3.42936 22.927C3.61201 22.7443 3.61201 22.7443 4.3426 22.0137C6.16909 20.0046 7.08233 18.9087 7.63027 17.8128C8.36087 16.169 8.72617 14.1599 8.36087 13.2466C8.36087 13.2466 7.99557 12.6987 8.17822 12.516H8.36087C9.63941 13.064 10.5526 15.0731 10.5526 15.0731C10.9179 15.9863 11.4659 17.0822 11.4659 18.5434C11.4659 18.5434 11.4659 20.5526 10.5526 22.5617C10.5526 22.5617 10.5526 22.5617 10.5526 22.7443C10.37 23.1096 10.0047 23.8402 10.1874 24.7535C10.37 25.4841 11.1006 25.8494 11.8312 26.032C11.8312 26.032 12.9271 26.2147 13.6577 25.6667C14.023 25.3014 14.5709 24.5708 14.3883 24.0229C14.3883 24.0229 14.3883 23.6576 14.5709 23.6576H14.7536C15.4842 23.8402 16.0321 26.2147 16.0321 26.2147C16.2148 27.1279 16.3974 27.8585 16.3974 28.7717C16.3974 29.137 16.3974 31.5115 14.5709 33.5206C13.6577 34.6165 12.7444 34.9818 12.1965 35.3471L12.0138 35.5297C12.0138 35.5297 11.8312 35.5297 11.8312 35.3471V35.1644C11.8312 35.1644 12.0138 34.7991 12.1965 34.0685C12.3791 33.5206 12.1965 32.6073 12.0138 32.2421C11.8312 31.5115 11.4659 31.1462 11.1006 30.5982C10.9179 30.0503 10.9179 30.0503 10.0047 29.137C9.45676 28.4064 9.27411 28.2238 9.09146 27.8585C8.90881 27.3105 8.90881 26.5799 8.90881 26.5799C8.90881 25.8494 9.09146 25.4841 9.09146 25.4841C8.90881 25.4841 8.72617 25.8494 8.36087 26.2147C7.99557 26.7626 7.81292 26.9452 7.63027 27.1279C7.44763 27.6758 7.26498 28.2238 7.26498 28.4064C7.26498 28.9544 7.44763 29.3197 7.44763 29.5023C7.63028 30.0503 7.63027 30.2329 7.81292 30.5982C7.81292 30.7809 7.99557 30.7809 7.99557 31.1462C7.99557 31.1462 7.99557 31.5115 7.81292 31.6941C7.81292 31.6941 7.63028 31.8768 7.44763 32.0594C7.08233 32.2421 6.71703 32.2421 6.35174 32.2421C5.62114 32.0594 5.43849 31.1462 5.43849 30.9635C5.43849 30.9635 5.43849 31.1462 5.25584 31.5115C5.43849 31.5115 5.43849 31.5115 5.43849 31.5115C5.25585 31.8768 5.0732 32.242 5.0732 32.4247C5.0732 32.9726 5.0732 33.3379 5.0732 33.7032C5.0732 34.7991 5.43849 35.3471 5.25584 35.3471Z" fill="#1E2632"/>
</g>
<defs>
<linearGradient id="paint0_linear_525_1251" x1="8.75493" y1="27.07" x2="8.75493" y2="0.881729" gradientUnits="userSpaceOnUse">
<stop stop-color="#1E2632" stop-opacity="0"/>
<stop offset="0.0969903" stop-color="#1E2632" stop-opacity="0.0969903"/>
<stop offset="1" stop-color="#1E2632"/>
</linearGradient>
</defs>
</svg>
