<svg width="28" height="26" viewBox="0 0 28 26" fill="none" xmlns="http://www.w3.org/2000/svg">
<g opacity="0.7">
<path d="M10.4382 24.4154C10.2556 24.5981 6.2373 21.8584 6.2373 17.6574C6.2373 14.9177 8.06379 12.5433 8.61173 11.9953C8.79438 11.63 8.79438 11.8127 9.52498 10.8995C11.3515 8.89032 12.2647 7.79443 12.8126 6.69854C13.5432 5.0547 13.9085 3.04557 13.5432 2.13233C13.5432 2.13233 13.1779 1.58438 13.3606 1.40173H13.5432C14.8218 1.94968 15.735 3.95881 15.735 3.95881C16.1003 4.87205 16.6483 5.96794 16.6483 7.42913C16.6483 7.42913 16.6483 9.43826 15.735 11.4474C15.735 11.4474 15.735 11.4474 15.735 11.63C15.5524 11.9953 15.1871 12.7259 15.3697 13.6392C15.5524 14.3698 16.283 14.7351 17.0136 14.9177C17.0136 14.9177 18.1095 15.1004 18.84 14.5524C19.2053 14.1871 19.7533 13.4565 19.5706 12.9086C19.5706 12.9086 19.5706 12.5433 19.7533 12.5433H19.9359C20.6665 12.7259 21.2145 15.1004 21.2145 15.1004C21.3971 16.0136 21.5798 16.7442 21.5798 17.6574C21.5798 18.0227 21.5798 20.3972 19.7533 22.4063C18.84 23.5022 17.9268 23.8675 17.3789 24.2328L17.1962 24.4154C17.1962 24.4154 17.0136 24.4154 17.0136 24.2328V24.0501C17.0136 24.0501 17.1962 23.6848 17.3789 22.9542C17.5615 22.4063 17.3789 21.4931 17.1962 21.1278C17.0136 20.3972 16.6483 20.0319 16.283 19.4839C15.735 18.936 15.735 18.936 14.8218 17.8401C14.2738 17.1095 14.0912 16.9268 13.9085 16.5616C14.0912 16.3789 14.0912 15.6483 14.0912 15.6483C14.0912 14.9177 14.2738 14.5524 14.2738 14.5524C14.0912 14.5524 13.9085 14.9177 13.5432 15.283C13.1779 15.831 12.9953 16.0136 12.8126 16.1963C12.63 16.7442 12.4474 17.2921 12.4474 17.4748C12.4474 18.0227 12.63 18.388 12.63 18.5707C12.8126 19.1186 12.8126 19.3013 12.9953 19.6666C12.9953 19.8492 13.1779 19.8492 13.1779 20.2145C13.1779 20.2145 13.1779 20.5798 12.9953 20.7625C12.9953 20.7625 12.8126 20.9451 12.63 21.1278C12.2647 21.3104 11.8994 21.3104 11.5341 21.3104C10.8035 21.1278 10.6209 20.2145 10.6209 20.0319C10.6209 20.0319 10.6209 20.2145 10.4382 20.5798C10.4382 20.7625 10.2556 20.7625 10.2556 20.7625C10.0729 21.1278 9.89027 21.4931 9.89027 21.6757C9.89027 22.2237 9.89027 22.5889 9.89027 22.9542C10.2556 23.8675 10.6209 24.2328 10.4382 24.4154Z" fill="#1E2632"/>
<path d="M24.6848 25.8767H21.5798V24.7808H24.6848C25.5981 24.7808 26.5113 24.0502 26.5113 22.9543V3.0456C26.5113 2.13236 25.7807 1.21912 24.6848 1.21912H3.13234C2.21909 1.21912 1.30585 1.94971 1.30585 3.0456V22.9543C1.30585 23.8675 2.03644 24.7808 3.13234 24.7808H6.60265V25.8767H3.13234C1.4885 25.8767 0.209961 24.5981 0.209961 22.9543V3.0456C0.209961 1.40177 1.4885 0.12323 3.13234 0.12323H24.6848C26.3287 0.12323 27.6072 1.40177 27.6072 3.0456V22.9543C27.6072 24.5981 26.3287 25.8767 24.6848 25.8767Z" fill="#1E2632"/>
</g>
</svg>
