<svg width="27" height="29" viewBox="0 0 27 29" fill="none" xmlns="http://www.w3.org/2000/svg">
<g opacity="0.7">
<path d="M23.137 28.242H3.22828C1.58445 28.242 0.305908 26.9634 0.305908 25.3196V3.7671C0.305908 2.30591 1.7671 0.844727 3.22828 0.844727H23.137C24.7808 0.844727 26.0593 2.12327 26.0593 3.7671V6.87212H24.9634V3.7671C24.9634 2.85386 24.2329 1.94062 23.137 1.94062H3.22828C2.31504 1.94062 1.4018 2.67121 1.4018 3.7671V25.3196C1.4018 26.2329 2.13239 27.1461 3.22828 27.1461H23.137C24.0502 27.1461 24.9634 26.4155 24.9634 25.3196V21.8493H26.0593V25.3196C26.0593 26.9634 24.7808 28.242 23.137 28.242Z" fill="#1E2632"/>
<path d="M15.8309 13.9955C15.8309 17.6485 13.6392 19.8403 10.3515 19.8403C7.06382 19.8403 5.05469 17.2832 5.05469 14.1782C5.05469 10.8905 7.24647 8.3334 10.5341 8.3334C14.0045 8.3334 15.8309 10.8905 15.8309 13.9955ZM7.79441 14.1782C7.79441 16.3699 8.89031 18.0138 10.5341 18.0138C12.178 18.0138 13.2739 16.3699 13.2739 14.1782C13.2739 12.169 12.3606 10.3425 10.5341 10.3425C8.70766 10.3425 7.79441 11.9864 7.79441 14.1782Z" fill="#1E2632"/>
<path d="M17.2922 8.51605H19.8493V13.4476C20.032 13.0823 20.3973 12.5343 20.5799 12.169L23.137 8.51605H26.242L22.589 13.2649L26.4247 19.6576H23.5023L20.7626 14.7261L19.8493 15.822V19.475H17.2922V8.51605Z" fill="#1E2632"/>
</g>
</svg>
