<svg width="28" height="26" viewBox="0 0 28 26" fill="none" xmlns="http://www.w3.org/2000/svg">
<g opacity="0.7">
<path d="M12.1895 18.1684C12.1033 18.2533 10.2068 16.9812 10.2068 15.0306C10.2068 13.7585 11.0689 12.656 11.3275 12.4016C11.4137 12.232 11.4137 12.3168 11.7585 11.8927C12.6206 10.9599 13.0516 10.451 13.3102 9.94219C13.6551 9.17892 13.8275 8.24605 13.6551 7.82202C13.6551 7.82202 13.4826 7.56759 13.5689 7.48279H13.6551C14.2585 7.73721 14.6895 8.67008 14.6895 8.67008C14.862 9.09412 15.1206 9.60296 15.1206 10.2814C15.1206 10.2814 15.1206 11.2143 14.6895 12.1472C14.6895 12.1472 14.6895 12.1472 14.6895 12.232C14.6033 12.4016 14.4309 12.7408 14.5171 13.1648C14.6033 13.5041 14.9482 13.6737 15.293 13.7585C15.293 13.7585 15.8102 13.8433 16.1551 13.5889C16.3275 13.4193 16.5861 13.08 16.4999 12.8256C16.4999 12.8256 16.4999 12.656 16.5861 12.656H16.6723C17.0171 12.7408 17.2758 13.8433 17.2758 13.8433C17.362 14.2673 17.4482 14.6066 17.4482 15.0306C17.4482 15.2002 17.4482 16.3027 16.5861 17.2356C16.1551 17.7444 15.724 17.914 15.4654 18.0836L15.3792 18.1684C15.3792 18.1684 15.293 18.1684 15.293 18.0836V17.9988C15.293 17.9988 15.3792 17.8292 15.4654 17.49C15.5516 17.2356 15.4654 16.8115 15.3792 16.6419C15.293 16.3027 15.1206 16.1331 14.9482 15.8787C14.6895 15.6242 14.6895 15.6242 14.2585 15.1154C13.9999 14.7762 13.9137 14.6914 13.8275 14.5218C13.9137 14.4369 13.9137 14.0977 13.9137 14.0977C13.9137 13.7585 13.9999 13.5889 13.9999 13.5889C13.9137 13.5889 13.8275 13.7585 13.6551 13.9281C13.4826 14.1825 13.3964 14.2673 13.3102 14.3521C13.224 14.6066 13.1378 14.861 13.1378 14.9458C13.1378 15.2002 13.224 15.3698 13.224 15.4546C13.3102 15.709 13.3102 15.7939 13.3964 15.9635C13.3964 16.0483 13.4826 16.0483 13.4826 16.2179C13.4826 16.2179 13.4826 16.3875 13.3964 16.4723C13.3964 16.4723 13.3102 16.5571 13.224 16.6419C13.0516 16.7267 12.8792 16.7267 12.7068 16.7267C12.362 16.6419 12.2758 16.2179 12.2758 16.1331C12.2758 16.1331 12.2758 16.2179 12.1895 16.3875C12.1895 16.4723 12.1033 16.4723 12.1033 16.4723C12.0171 16.6419 11.9309 16.8115 11.9309 16.8963C11.9309 17.1508 11.9309 17.3204 11.9309 17.49C12.1033 17.914 12.2758 18.0836 12.1895 18.1684Z" fill="#1E2632"/>
<path d="M24.6848 25.8767H21.5798V24.7808H24.6848C25.5981 24.7808 26.5113 24.0502 26.5113 22.9543V3.0456C26.5113 2.13236 25.7807 1.21912 24.6848 1.21912H3.13234C2.21909 1.21912 1.30585 1.94971 1.30585 3.0456V22.9543C1.30585 23.8675 2.03644 24.7808 3.13234 24.7808H23.4992V25.8767H3.13234C1.4885 25.8767 0.209961 24.5981 0.209961 22.9543V3.0456C0.209961 1.40177 1.4885 0.12323 3.13234 0.12323H24.6848C26.3287 0.12323 27.6072 1.40177 27.6072 3.0456V22.9543C27.6072 24.5981 26.3287 25.8767 24.6848 25.8767Z" fill="#1E2632"/>
<path d="M10.2879 22.0525L8.01207 19.2068L5.80518 22.0525H6.3569V25.7585H9.73621V22.0525H10.2879Z" fill="url(#paint0_linear_525_1318)"/>
<path d="M16.15 22.0525L13.8741 19.2068L11.6672 22.0525H12.219V25.7585H15.5983V22.0525H16.15Z" fill="url(#paint1_linear_525_1318)"/>
<path d="M22.0121 22.0525L19.7362 19.2068L17.5293 22.0525H18.081V25.7585H21.4603V22.0525H22.0121Z" fill="url(#paint2_linear_525_1318)"/>
<path d="M10.2879 3.94745L8.01207 6.79315L5.80518 3.94745H6.3569V0.241427H9.73621V3.94745H10.2879Z" fill="url(#paint3_linear_525_1318)"/>
<path d="M16.15 3.94745L13.8741 6.79315L11.6672 3.94745H12.219V0.241427H15.5983V3.94745H16.15Z" fill="url(#paint4_linear_525_1318)"/>
<path d="M22.0121 3.94745L19.7362 6.79315L17.5293 3.94745H18.081V0.241427H21.4603V3.94745H22.0121Z" fill="url(#paint5_linear_525_1318)"/>
</g>
<defs>
<linearGradient id="paint0_linear_525_1318" x1="8.03821" y1="25.7392" x2="8.03821" y2="19.2321" gradientUnits="userSpaceOnUse">
<stop stop-color="#1E2632"/>
<stop offset="0.0969903" stop-color="#1E2632" stop-opacity="0.0969903"/>
<stop offset="1" stop-color="#1E2632"/>
</linearGradient>
<linearGradient id="paint1_linear_525_1318" x1="13.9003" y1="25.7392" x2="13.9003" y2="19.2321" gradientUnits="userSpaceOnUse">
<stop stop-color="#1E2632"/>
<stop offset="0.0969903" stop-color="#1E2632" stop-opacity="0.0969903"/>
<stop offset="1" stop-color="#1E2632"/>
</linearGradient>
<linearGradient id="paint2_linear_525_1318" x1="19.7623" y1="25.7392" x2="19.7623" y2="19.2321" gradientUnits="userSpaceOnUse">
<stop stop-color="#1E2632"/>
<stop offset="0.0969903" stop-color="#1E2632" stop-opacity="0.0969903"/>
<stop offset="1" stop-color="#1E2632"/>
</linearGradient>
<linearGradient id="paint3_linear_525_1318" x1="8.03821" y1="0.260818" x2="8.03821" y2="6.76787" gradientUnits="userSpaceOnUse">
<stop stop-color="#1E2632"/>
<stop offset="0.0969903" stop-color="#1E2632" stop-opacity="0.0969903"/>
<stop offset="1" stop-color="#1E2632"/>
</linearGradient>
<linearGradient id="paint4_linear_525_1318" x1="13.9003" y1="0.260818" x2="13.9003" y2="6.76787" gradientUnits="userSpaceOnUse">
<stop stop-color="#1E2632"/>
<stop offset="0.0969903" stop-color="#1E2632" stop-opacity="0.0969903"/>
<stop offset="1" stop-color="#1E2632"/>
</linearGradient>
<linearGradient id="paint5_linear_525_1318" x1="19.7623" y1="0.260818" x2="19.7623" y2="6.76787" gradientUnits="userSpaceOnUse">
<stop stop-color="#1E2632"/>
<stop offset="0.0969903" stop-color="#1E2632" stop-opacity="0.0969903"/>
<stop offset="1" stop-color="#1E2632"/>
</linearGradient>
</defs>
</svg>
