<svg width="26" height="29" viewBox="0 0 26 29" fill="none" xmlns="http://www.w3.org/2000/svg">
<path d="M13.8587 8.29035L5.98176 16.4808C5.20115 17.3217 4.77545 18.4187 4.77545 19.6253C4.81106 20.7952 5.27219 21.9287 6.12381 22.8064C7.86248 24.5614 10.6301 24.6346 12.2977 22.916L23.368 11.5079C23.368 11.5079 23.4034 11.4712 23.4034 11.4347C24.4679 10.1916 25 8.65597 25 7.12026C25 5.51136 24.3969 3.93923 23.2613 2.76903C20.9904 0.428931 17.3005 0.428931 14.8522 2.65936C14.8165 2.65936 14.8165 2.65936 14.7811 2.69583L3.10765 14.7255C0.233679 17.6872 0.304705 22.5869 3.28511 25.6583C4.70425 27.1208 6.62045 27.9619 8.60736 27.9984L8.6072 27.9988C10.6295 28.0353 12.51 27.2675 13.894 25.8415L22.6935 16.7735" stroke="#757D8C"/>
</svg>
