<svg width="52" height="53" viewBox="0 0 52 53" fill="none" xmlns="http://www.w3.org/2000/svg">
<path d="M39.0165 21.7389V5.18083C39.0165 2.6575 36.8233 0.709412 34.3498 1.03578L4.59777 4.9615C2.53964 5.23306 1 7.00691 1 9.10655V25.919C1 28.2277 2.85006 30.0992 5.13223 30.0992H9.05785V39.9226L17.892 30.9859C18.4533 30.4182 19.2145 30.0992 20.0083 30.0992M47.4032 24.6142L27.1552 21.9378C24.6815 21.6108 22.4876 23.559 22.4876 26.0827V39.4393C22.4876 41.7479 24.3377 43.6195 26.6198 43.6195H35.9598C37.057 43.6195 38.1091 44.0609 38.8843 44.8464L44.9566 51V43.6195H46.8678C49.1499 43.6195 51 41.7479 51 39.4393V28.7591C51 26.6598 49.4609 24.8862 47.4032 24.6142Z" stroke="#1E2632"/>
<ellipse cx="15.2561" cy="16.0958" rx="0.619835" ry="0.627025" fill="#1E2632"/>
<ellipse cx="20.628" cy="16.0958" rx="0.619835" ry="0.627025" fill="#1E2632"/>
<ellipse cx="26.0001" cy="16.0958" rx="0.619835" ry="0.627025" fill="#1E2632"/>
</svg>
