<svg width="52" height="52" viewBox="0 0 52 52" fill="none" xmlns="http://www.w3.org/2000/svg">
<path d="M5.63223 14.712C5.89639 14.24 6.18335 13.7902 6.47902 13.3391L5.37819 12.2619C5.3069 12.1941 5.24976 12.113 5.21008 12.0231C5.17039 11.9332 5.14894 11.8364 5.14698 11.7382C5.14501 11.64 5.16256 11.5424 5.19861 11.451C5.23466 11.3596 5.2885 11.2763 5.35702 11.2058L10.6707 5.79849C10.74 5.72876 10.8224 5.67339 10.9133 5.63562C11.0041 5.59785 11.1015 5.5784 11.1999 5.5784C11.2983 5.5784 11.3958 5.59785 11.4866 5.63562C11.5775 5.67339 11.6599 5.72876 11.7292 5.79849L12.8512 6.89684C15.3797 5.17165 18.2711 3.96889 21.3828 3.34832V1.74304C21.381 1.5673 21.4417 1.39661 21.5541 1.26128C21.6665 1.12594 21.8233 1.03469 21.9967 1.00373C22.046 0.998813 22.0958 0.998731 22.1451 1.00364H29.7242C29.8231 1.00141 29.9215 1.01886 30.0136 1.05496C30.1057 1.09106 30.1897 1.1451 30.2606 1.21392C30.3315 1.28273 30.388 1.36496 30.4268 1.45579C30.4656 1.54662 30.4858 1.64424 30.4863 1.74296V3.32716C33.3137 3.88992 35.9414 4.96813 38.2979 6.45323L39.3987 5.29148C39.4666 5.22035 39.5479 5.16333 39.638 5.12374C39.7281 5.08414 39.8251 5.06279 39.9235 5.06082C40.0219 5.05886 40.1198 5.07638 40.2114 5.11235C40.303 5.14832 40.3865 5.20203 40.4572 5.2704L45.9613 10.4876C46.0326 10.5553 46.0898 10.6365 46.1295 10.7263C46.1691 10.8162 46.1906 10.913 46.1926 11.0112C46.1945 11.1094 46.177 11.2071 46.1409 11.2985C46.1049 11.3898 46.051 11.4732 45.9825 11.5437L44.8817 12.6843C46.7173 15.2768 48.0061 18.2453 48.6499 21.4711H50.2588C50.455 21.4722 50.6428 21.5505 50.7815 21.6889C50.9203 21.8273 50.9987 22.0147 50.9998 22.2104V29.7718C51.0021 29.8705 50.9846 29.9686 50.9484 30.0605C50.9122 30.1524 50.8581 30.2362 50.7891 30.307C50.7201 30.3777 50.6377 30.4341 50.5467 30.4728C50.4556 30.5114 50.3578 30.5316 50.2588 30.5322H48.6499C48.0626 33.46 46.9487 36.185 45.3686 38.6012L46.4905 39.7206C46.5618 39.7884 46.619 39.8695 46.6586 39.9594C46.6983 40.0492 46.7198 40.1461 46.7217 40.2443C46.7237 40.3425 46.7062 40.4401 46.6701 40.5315C46.6341 40.6229 46.5802 40.7062 46.5117 40.7767L41.198 46.184C41.1287 46.2537 41.0463 46.3091 40.9555 46.3468C40.8646 46.3846 40.7672 46.4041 40.6688 46.4041C40.5704 46.4041 40.4729 46.3846 40.3821 46.3468C40.2913 46.3091 40.2088 46.2537 40.1395 46.184L39.0176 45.0856C36.489 46.8115 33.599 48.0345 30.4859 48.6553V50.2394C30.4882 50.3399 30.4701 50.4398 30.4326 50.5331C30.3951 50.6264 30.3391 50.7112 30.2678 50.7822C30.1966 50.8533 30.1117 50.9093 30.0182 50.9467C29.9247 50.9841 29.8245 51.0021 29.7238 50.9998H22.1447C22.0439 51.0021 21.9438 50.9841 21.8503 50.9467C21.7568 50.9093 21.6719 50.8533 21.6006 50.7822C21.5294 50.7112 21.4733 50.6264 21.4359 50.5331C21.3984 50.4398 21.3802 50.3399 21.3825 50.2394V48.6553C18.3407 48.0489 15.4866 46.92 12.9993 45.2546M14.7356 14.036C15.4768 13.3449 16.2677 12.7232 17.1278 12.1773C19.6312 10.5884 22.6081 9.67123 25.7861 9.64264L26.0619 9.64181C34.9837 9.71143 42.2043 16.8936 42.3203 25.7791V26.2019C42.2031 35.1307 34.9166 42.3602 25.9345 42.3602C24.2163 42.3602 22.5604 42.0892 21.002 41.5998M3.81556 17.7534C2.26972 17.7534 1 18.9992 1 20.5415V26.4768C1 28.0192 2.26979 29.286 3.81556 29.286H9.82781C11.3736 29.286 12.6434 28.0192 12.6434 26.4768V20.5415C12.6434 18.9992 11.3736 17.7534 9.82781 17.7534H3.81556ZM17.2159 17.7534C15.6701 17.7534 14.4004 18.9992 14.4004 20.5415V26.4768C14.4004 28.0192 15.6701 29.286 17.2159 29.286H23.2282C24.774 29.286 26.0437 28.0192 26.0437 26.4768V20.5415C26.0437 18.9992 24.7739 17.7534 23.2282 17.7534H17.2159ZM3.81556 31.0178C2.26972 31.0178 1 32.2636 1 33.8059V39.7412C1 41.2836 2.26979 42.5505 3.81556 42.5505H9.82781C11.3736 42.5505 12.6434 41.2836 12.6434 39.7412V33.8059C12.6434 32.2636 11.3736 31.0178 9.82781 31.0178H3.81556Z" stroke="#1E2632"/>
</svg>
