<svg width="39" height="42" viewBox="0 0 39 42" fill="none" xmlns="http://www.w3.org/2000/svg">
<path d="M35.5213 8.66575C32.7976 8.11254 27.3482 6.47045 21.4535 1.68834C20.9018 1.243 20.2124 1 19.5012 1C18.7903 1 18.1008 1.243 17.5491 1.68834C11.65 6.47045 6.20199 8.11258 3.47868 8.66575C2.7792 8.81086 2.15157 9.19071 1.7008 9.74121C1.24975 10.2917 1.0034 10.9793 1.00236 11.689V18.0336C0.94025 22.3676 2.10678 26.6314 4.3683 30.3385C10.0031 39.2701 18.9859 40.9228 19.3661 40.989C19.4545 41.0041 19.5454 41.0038 19.6339 40.9886C20.0135 40.9224 28.9994 39.2697 34.6317 30.3382C36.8932 26.6314 38.0601 22.3681 37.9976 18.0336V11.689C37.9966 10.9793 37.7502 10.2916 37.2992 9.74121C36.8485 9.19075 36.2208 8.81091 35.5213 8.66575ZM31.8129 12.3008C27.8621 11.1144 24.1457 9.2634 20.8247 6.82817C20.4402 6.54898 19.9763 6.39835 19.4999 6.39835C19.0236 6.39835 18.5597 6.54898 18.1752 6.82817C14.8544 9.2634 11.1381 11.1143 7.18695 12.3008C6.71994 12.4383 6.30982 12.722 6.01733 13.1091C5.72518 13.4961 5.56628 13.9666 5.56419 14.4506V18.1952C5.51874 21.6335 6.43369 25.0166 8.20667 27.9695C10.7409 32.0019 14.6866 34.961 19.2856 36.2774C19.4226 36.3156 19.5673 36.3156 19.7043 36.2774C24.2971 34.9448 28.241 31.9898 30.793 27.9695C32.5664 25.0166 33.481 21.6335 33.4355 18.1952V14.4506C33.4334 13.9666 33.2745 13.4962 32.9824 13.1091C32.6899 12.722 32.28 12.4383 31.8129 12.3008ZM25.7799 16.063C25.3743 15.7256 24.8521 15.5598 24.3247 15.6001C23.7973 15.6404 23.307 15.8845 22.9583 16.2795L18.5449 21.254L16.6633 19.3492C16.3732 19.0535 15.9756 18.8867 15.5599 18.886C15.1442 18.8811 14.7445 19.0445 14.4527 19.3392L12.8983 20.8879C12.6162 21.1695 12.4542 21.548 12.4455 21.945C12.4369 22.342 12.5829 22.7271 12.8525 23.0201L17.6045 28.1821C17.9297 28.5271 18.3949 28.7071 18.8696 28.6712C19.3439 28.635 19.7765 28.3868 20.0447 27.9963L26.2079 18.8027C26.4934 18.3753 26.6079 17.8572 26.5288 17.3502C26.4497 16.8435 26.1824 16.3843 25.7799 16.063Z" stroke="black"/>
</svg>
