<svg width="20" height="20" viewBox="0 0 20 20" fill="none" xmlns="http://www.w3.org/2000/svg">
<path fill-rule="evenodd" clip-rule="evenodd" d="M19.9872 9.49085C19.9872 9.87651 19.8429 10.0165 19.5686 10.0748C19.1201 10.0748 18.9458 9.8748 18.9458 9.6034C18.9458 9.6034 18.8287 5.53333 16.6376 3.34946C16.6393 3.3472 16.6412 3.34509 16.6433 3.34317C14.4521 1.16673 10.3755 1.05288 10.3755 1.05288C10.1026 1.05288 9.90269 0.879476 9.90411 0.431102C9.96268 0.158564 10.1026 0.013296 10.4897 0.0130103C10.4897 0.0130103 14.355 -0.341374 17.3546 2.64897C17.3518 2.6514 17.3503 2.65383 17.3475 2.65626C20.34 5.6466 19.9872 9.49085 19.9872 9.49085ZM11.5682 5.26508C11.5695 5.19542 11.5848 5.12674 11.613 5.06303C11.6412 4.99933 11.6818 4.94189 11.7325 4.89408C11.7832 4.84627 11.8429 4.80904 11.9081 4.78457C11.9733 4.7601 12.0428 4.74888 12.1124 4.75157C12.528 4.72143 12.9451 4.78337 13.3339 4.93297C13.7228 5.08257 14.0739 5.31614 14.3621 5.61704C14.0822 5.89757 13.9693 6.01013 13.7108 6.26767C13.9665 6.0127 14.0793 5.90014 14.3593 5.62189C14.6608 5.90826 14.8951 6.25791 15.0453 6.64569C15.1954 7.03347 15.2578 7.44972 15.2278 7.86447C15.2303 7.93404 15.2189 8.00342 15.1943 8.06855C15.1698 8.13368 15.1324 8.19325 15.0845 8.24379C15.0367 8.29433 14.9792 8.33481 14.9155 8.36288C14.8518 8.39095 14.7831 8.40604 14.7135 8.40726C14.4336 8.43583 14.1879 8.1073 14.1879 7.87333C14.1879 7.87333 14.095 6.85031 13.6108 6.36752L13.6151 6.36423C13.1309 5.88143 12.1038 5.78973 12.1038 5.78973C11.8681 5.78887 11.5396 5.54405 11.5682 5.26494V5.26508ZM17.5475 8.65423C17.5475 8.79118 17.4931 8.92252 17.3962 9.01936C17.2994 9.1162 17.1681 9.1706 17.0311 9.1706C16.8942 9.1706 16.7628 9.1162 16.666 9.01936C16.5691 8.92252 16.5147 8.79118 16.5147 8.65423C16.5147 8.65423 16.3476 6.07884 15.1363 4.86099C13.9193 3.64685 11.3254 3.48287 11.3254 3.48287C11.189 3.48268 11.0583 3.42832 10.962 3.33175C10.8657 3.23518 10.8117 3.10431 10.8119 2.96793C10.812 2.83155 10.8664 2.70083 10.963 2.60453C11.0595 2.50823 11.1904 2.45424 11.3268 2.45442C12.1571 2.39612 12.9903 2.51572 13.7706 2.80523C14.551 3.09474 15.2606 3.54749 15.8519 4.13322C15.8524 4.13477 15.8534 4.1361 15.8548 4.13693L15.8591 4.1405C16.4466 4.72859 16.9013 5.43573 17.1925 6.2143C17.4837 6.99287 17.6048 7.82481 17.5475 8.65409V8.65423ZM12.8909 13.6973C12.988 13.5622 13.5437 12.7703 13.8465 12.6283C14.0491 12.514 14.276 12.4495 14.5085 12.4402C14.741 12.4308 14.9723 12.4769 15.1835 12.5746C15.9205 12.8434 17.4675 13.924 17.5246 13.9939C17.5646 14.0234 19.6301 15.5414 19.6301 16.2154C19.7229 16.4024 19.7415 17.1748 19.2287 18.0504C19.0284 18.4744 18.7439 18.8532 18.3925 19.1637C18.0411 19.4743 17.6301 19.71 17.1847 19.8566C17.1261 19.8954 16.3904 20.1557 15.1277 19.8619C14.3315 19.5764 13.5522 19.2456 12.7938 18.871C8.83424 17.0149 5.95601 14.0716 5.96172 14.0614C5.96516 14.0572 5.96899 14.0533 5.97316 14.0497C6.02315 14.0001 6.07455 13.9483 6.12883 13.8946L6.15457 13.8683C6.17314 13.8503 6.19026 13.8323 6.20883 13.814C6.25168 13.7723 6.29313 13.7298 6.33741 13.6866C6.29313 13.7295 6.25168 13.7723 6.20883 13.814C6.19026 13.8323 6.17314 13.8505 6.15457 13.8683L6.12883 13.8946C6.07455 13.9483 6.02315 14.0001 5.97316 14.0497C5.96887 14.0543 5.96315 14.0589 5.95886 14.064C5.94886 14.0687 2.99493 11.1988 1.1323 7.25055C0.75705 6.49436 0.425131 5.71744 0.138139 4.92355C-0.156111 3.66428 0.105291 2.93065 0.143858 2.8728C0.291858 2.42784 0.528887 2.01766 0.840516 1.66726C1.15215 1.31685 1.53184 1.03356 1.95649 0.834624C2.83495 0.323544 3.60916 0.341684 3.79771 0.434673C4.47334 0.434673 5.996 2.49356 6.02599 2.53342C6.09598 2.59055 7.18013 4.13322 7.4501 4.8687C7.54844 5.07882 7.59485 5.3095 7.58541 5.54131C7.57596 5.77311 7.51095 5.99925 7.39584 6.20068C7.25443 6.50393 6.45881 7.057 6.32454 7.1537C6.096 7.34411 5.66176 7.7762 5.68176 8.44855C5.78889 10.1696 7.80577 12.2239 7.80577 12.2239C7.80588 12.2236 7.80608 12.2233 7.80633 12.223C7.80658 12.2227 7.80686 12.2225 7.8072 12.2224C7.8072 12.2224 9.86695 14.2318 11.5925 14.3387C11.8435 14.338 12.0911 14.2798 12.3161 14.1686C12.5412 14.0574 12.7378 13.8962 12.8909 13.6972V13.6973ZM6.78591 13.2382C6.83876 13.1867 6.88877 13.1355 6.94019 13.0851C6.88877 13.1354 6.83876 13.186 6.78591 13.2381V13.2382ZM7.08017 12.945C7.12159 12.9036 7.163 12.863 7.20299 12.8236C7.163 12.8629 7.12159 12.9034 7.08017 12.9448V12.945ZM7.39012 12.6369C7.40726 12.6192 7.42442 12.6019 7.44156 12.585C7.45156 12.5745 7.46298 12.5642 7.47298 12.5539C7.48298 12.5436 7.49726 12.5298 7.50869 12.518C7.49726 12.5298 7.48441 12.5418 7.47298 12.5539C7.46155 12.566 7.45156 12.5745 7.44156 12.585C7.42442 12.6018 7.40726 12.619 7.39012 12.6367V12.6369ZM7.64581 12.3809C7.66152 12.3666 7.67581 12.3524 7.68867 12.3381C7.67581 12.3516 7.66152 12.3658 7.64581 12.3808V12.3809ZM7.69582 12.3314C7.70724 12.3206 7.71724 12.3106 7.72581 12.3015C7.71724 12.3105 7.70724 12.3205 7.69582 12.3312V12.3314ZM7.75866 12.2688C7.76723 12.2604 7.77436 12.2532 7.78007 12.2469C7.77436 12.2531 7.76723 12.2604 7.75866 12.2686V12.2688ZM7.78865 12.2387C7.79366 12.2342 7.79845 12.2294 7.80295 12.2244C7.80009 12.2272 7.79579 12.2321 7.78865 12.2385V12.2387Z" fill="white"/>
</svg>
