<svg width="24" height="24" viewBox="0 0 24 24" fill="none" xmlns="http://www.w3.org/2000/svg">
<path d="M6.05291 15.2947C8.03304 17.6527 10.4167 19.5093 13.1373 20.823C14.1731 21.3121 15.5583 21.8923 17.1017 21.9917C17.1974 21.9959 17.2889 22 17.3846 22C18.4204 22 19.2524 21.6436 19.9304 20.9101C19.9346 20.9059 19.9429 20.8976 19.9471 20.8893C20.1883 20.5993 20.4629 20.3382 20.7499 20.0605C20.9455 19.874 21.1451 19.6792 21.3365 19.4803C22.2226 18.5603 22.2226 17.3916 21.3282 16.5006L18.828 14.0099C18.4037 13.5707 17.8962 13.3386 17.3638 13.3386C16.8313 13.3386 16.3196 13.5707 15.8828 14.0058L14.3936 15.4894C14.2563 15.4107 14.1149 15.3402 13.9817 15.2739C13.8153 15.191 13.6614 15.1123 13.5241 15.0253C12.168 14.1674 10.9367 13.0485 9.75941 11.6104C9.16454 10.8603 8.76518 10.2304 8.48647 9.58807C8.8775 9.23581 9.24358 8.86697 9.59717 8.50642C9.72197 8.37795 9.85092 8.24948 9.97988 8.12101C10.4291 7.67344 10.6704 7.15541 10.6704 6.62909C10.6704 6.10278 10.4333 5.58475 9.97988 5.13717L8.74022 3.9022C8.59463 3.75715 8.45735 3.61625 8.31591 3.4712C8.04136 3.18939 7.75432 2.8993 7.47145 2.63821C7.04297 2.21964 6.53962 2 6.00715 2C5.47884 2 4.97133 2.21964 4.52622 2.64235L2.9704 4.19229C2.40465 4.75591 2.08434 5.4397 2.01778 6.23125C1.93874 7.22172 2.12178 8.27435 2.59601 9.54662C3.324 11.5151 4.42222 13.3427 6.05291 15.2947Z" stroke="#1E2632"/>
</svg>
