<svg width="22" height="16" viewBox="0 0 22 16" fill="none" xmlns="http://www.w3.org/2000/svg">
<path d="M3.90863 7.88571L5.97462 7.54286C6.94247 7.54286 7.79864 7.88571 8.54315 8.57143C9.32487 9.21905 9.71574 10.1905 9.71574 11.4857C9.71574 12.7429 9.30626 13.8095 8.48731 14.6857C7.66836 15.5619 6.51438 16 5.02538 16C3.5736 16 2.36379 15.4286 1.39594 14.2857C0.465313 13.1429 0 11.6762 0 9.88571C0 8.05714 0.67005 6.24762 2.01015 4.45714C3.38747 2.66666 5.34179 1.18095 7.8731 0L8.26396 0.971429C4.76481 2.95238 3.01523 4.95238 3.01523 6.97143C3.01523 7.58095 3.31303 7.88571 3.90863 7.88571ZM16.1929 7.88571L18.2589 7.54286C19.2268 7.54286 20.0829 7.88571 20.8274 8.57143C21.6091 9.21905 22 10.1905 22 11.4857C22 12.7429 21.5905 13.8095 20.7716 14.6857C19.9527 15.5619 18.7986 16 17.3096 16C15.8579 16 14.6481 15.4286 13.6802 14.2857C12.7496 13.1429 12.2843 11.6762 12.2843 9.88571C12.2843 8.05714 12.9543 6.24762 14.2944 4.45714C15.6717 2.66666 17.626 1.18095 20.1574 0L20.5482 0.971429C17.0491 2.95238 15.2995 4.95238 15.2995 6.97143C15.2995 7.58095 15.5973 7.88571 16.1929 7.88571Z" fill="white"/>
</svg>
