<svg width="52" height="52" viewBox="0 0 52 52" fill="none" xmlns="http://www.w3.org/2000/svg">
<path d="M4.45234 12.7518L38.2741 1.27803C38.2741 1.27803 41.196 -0.129512 41.196 3.38935V8.31576M5.90196 12.5387H46.098C48.8053 12.5387 50.9999 14.6911 50.9999 17.3463V46.1923C50.9999 48.8475 48.8053 51 46.098 51H5.90196C3.19468 51 1 48.8475 1 46.1923V17.3463C1 14.6911 3.19468 12.5387 5.90196 12.5387ZM45.1176 32.2499C45.1176 33.5775 44.0203 34.6538 42.6666 34.6538C41.313 34.6538 40.2157 33.5775 40.2157 32.2499C40.2157 30.9223 41.313 29.8461 42.6666 29.8461C44.0203 29.8461 45.1176 30.9223 45.1176 32.2499Z" stroke="#1E2632"/>
</svg>
