<svg width="52" height="52" viewBox="0 0 52 52" fill="none" xmlns="http://www.w3.org/2000/svg">
<path d="M27.3846 37.1878C26.7053 37.8541 25.9608 38.2593 24.779 38.2593C22.8992 38.2593 21.5126 36.8277 21.5126 35C21.5126 33.2173 22.8899 31.7407 24.8069 31.7407C25.9887 31.7407 26.6774 32.1639 27.3288 32.7581M38 1H17C14.2386 1 12 3.23858 12 6V24M38 1L51 14M38 1V14H51M51 14V46C51 48.7614 48.7614 51 46 51H17C14.2386 51 12 48.7614 12 46M2.73077 43H29.2692C30.2251 43 31 42.2041 31 41.2222V28.7778C31 27.7959 30.2251 27 29.2692 27H2.73077C1.77489 27 1 27.7959 1 28.7778V41.2222C1 42.2041 1.77489 43 2.73077 43ZM4.61538 38.1512H6.87672C8.92401 38.1512 10.3385 36.7737 10.3385 35C10.3385 33.2083 8.92401 31.8488 6.87672 31.8488H4.61538V38.1512ZM15.9191 38.2593C17.9013 38.2593 19.2506 36.7377 19.2506 35C19.2506 33.2443 17.9199 31.7407 15.9377 31.7407C13.9556 31.7407 12.6062 33.2623 12.6062 35C12.6062 36.7557 13.9369 38.2593 15.9191 38.2593Z" stroke="#FF1F20" stroke-linecap="round"/>
</svg>
