<svg width="24" height="24" viewBox="0 0 24 24" fill="none" xmlns="http://www.w3.org/2000/svg">
<path d="M2.45181 5.95703C2.16767 6.24845 2 6.65295 2 7.09181V16.9082C2 17.3563 2.19227 17.7685 2.49505 18.0612M2.45181 5.95703C2.72592 5.6759 3.10842 5.5 3.55336 5.5H20.4466C20.9075 5.5 21.3296 5.7189 21.617 6.05859M2.45181 5.95703L9.18096 11.8037M21.617 6.05859C21.8544 6.33906 22 6.70187 22 7.09181V16.9082C22 17.3563 21.8077 17.7685 21.505 18.0612M21.617 6.05859L14.8713 11.8037M14.8713 11.8037L12.2265 14.0561C12.0971 14.1888 11.9029 14.1888 11.7734 14.0561L9.18096 11.8037M14.8713 11.8037L21.505 18.0612M21.505 18.0612C21.2251 18.3317 20.8508 18.5 20.4466 18.5H3.55336C3.1492 18.5 2.77491 18.3317 2.49505 18.0612M9.18096 11.8037L2.49505 18.0612" stroke="#1E2632"/>
</svg>
