<svg width="120" height="120" viewBox="0 0 120 120" fill="none" xmlns="http://www.w3.org/2000/svg">
<path d="M119 60C119 92.5848 92.5848 119 60 119C27.4152 119 1 92.5848 1 60C1 27.4152 27.4152 1 60 1C92.5848 1 119 27.4152 119 60Z" stroke="white" stroke-width="2"/>
<path d="M49.511 44.5955V44.5473C49.5339 42.9629 50.6851 41.8511 51.9066 41.8511C52.236 41.8511 52.4185 41.9186 53.0345 42.1881L76.7863 57.4239C77.5469 57.9224 77.9679 58.7412 78.1489 59.8882V60.1126C77.9679 61.2588 77.5469 62.0781 76.7863 62.5769C76.7851 62.5777 76.784 62.5784 76.7829 62.5792L53.0347 77.8124C52.4196 78.0817 52.2364 78.1489 51.9069 78.1489C50.6731 78.1489 49.511 77.0145 49.511 75.4046V44.5955Z" stroke="white" stroke-width="2"/>
</svg>
