<svg width="24" height="24" viewBox="0 0 24 24" fill="none" xmlns="http://www.w3.org/2000/svg">
<path d="M18.3628 3.66888C17.4777 2.77926 16.4872 2.11204 15.3914 1.66722C14.2955 1.22241 13.1636 1 11.9955 1C10.8334 1 9.70446 1.22241 8.60863 1.66722C7.51279 2.11204 6.52233 2.77926 5.63723 3.66888C3.87908 5.53954 3 7.68744 3 10.1126C3 12.5377 3.87908 14.6856 5.63723 16.5563L11.9955 23L18.3628 16.5563C20.1209 14.6856 21 12.5377 21 10.1126C21 7.68744 20.1209 5.53954 18.3628 3.66888ZM11.9955 6.34691C10.9779 6.37737 10.1289 6.73688 9.44857 7.42543C8.77421 8.10788 8.42499 8.96399 8.4009 9.99377C8.42499 11.0296 8.77421 11.8918 9.44857 12.5804C10.1289 13.2628 10.9779 13.6163 11.9955 13.6406C13.0191 13.6163 13.868 13.2628 14.5424 12.5804C15.2228 11.8918 15.575 11.0296 15.5991 9.99377C15.575 8.96399 15.2228 8.10788 14.5424 7.42543C13.868 6.73688 13.0191 6.37737 11.9955 6.34691Z" stroke="#1E2632"/>
</svg>
