<svg width="52" height="52" viewBox="0 0 52 52" fill="none" xmlns="http://www.w3.org/2000/svg">
<path d="M16.4162 10.6589V4.03956C16.4162 2.36364 17.7877 1 19.4747 1H32.5253C34.2123 1 35.5838 2.36364 35.5838 4.03956V10.6589M3.93665 27.504L1.37992 26.5531C1.15054 26.4599 1 26.2372 1 25.9909V13.6985C1 12.0225 2.37155 10.6589 4.05851 10.6589H47.9415C49.6284 10.6589 51 12.0225 51 13.6985V25.9909C51 26.2372 50.8507 26.4599 50.6201 26.5531L48.0657 27.504M3.93665 27.504C3.75266 27.4612 3.56031 27.5004 3.41216 27.6156C3.26401 27.7308 3.17799 27.9071 3.17799 28.0941V47.9604C3.17799 49.6364 4.54954 51 6.2365 51H45.7647C47.4517 51 48.8232 49.6364 48.8232 47.9604V28.0941C48.8232 27.9071 48.7372 27.7308 48.589 27.6156C48.4409 27.4998 48.2438 27.4595 48.0657 27.504M3.93665 27.504L22.9681 32.6871M48.0657 27.504L29.0319 32.6871M22.9681 32.6871V35.4036C22.9681 36.4093 23.7913 37.2274 24.8032 37.2274H27.1968C28.2087 37.2274 29.0319 36.4093 29.0319 35.4036V32.6871M22.9681 32.6871V30.6087C22.9681 29.603 23.7913 28.785 24.8032 28.785H27.1968C28.2087 28.785 29.0319 29.603 29.0319 30.6087V32.6871" stroke="#1E2632"/>
</svg>
