<svg width="20" height="20" viewBox="0 0 20 20" fill="none" xmlns="http://www.w3.org/2000/svg">
<path fill-rule="evenodd" clip-rule="evenodd" d="M14.2857 20H5.71429C4.19876 20 2.74531 19.4064 1.67367 18.3499C0.602035 17.2934 0 15.8604 0 14.3662V5.6338C0 4.13963 0.602035 2.70665 1.67367 1.6501C2.74531 0.59356 4.19876 0 5.71429 0H14.2857C15.8012 0 17.2547 0.59356 18.3263 1.6501C19.398 2.70665 20 4.13963 20 5.6338V14.3662C20 15.106 19.8522 15.8386 19.565 16.5222C19.2779 17.2057 18.857 17.8268 18.3263 18.3499C17.7957 18.873 17.1658 19.288 16.4725 19.5712C15.7792 19.8543 15.0361 20 14.2857 20ZM18.1429 5.21127C18.1429 4.27741 17.7666 3.38179 17.0968 2.72146C16.427 2.06112 15.5186 1.69014 14.5714 1.69014H5.28571C4.33851 1.69014 3.43011 2.06112 2.76034 2.72146C2.09057 3.38179 1.71429 4.27741 1.71429 5.21127V14.3662C1.71429 15.3001 2.09057 16.1957 2.76034 16.856C3.43011 17.5163 4.33851 17.8873 5.28571 17.8873H14.5714C15.5186 17.8873 16.427 17.5163 17.0968 16.856C17.7666 16.1957 18.1429 15.3001 18.1429 14.3662V5.21127ZM15.2857 5.77465C15.0314 5.77465 14.7828 5.7003 14.5714 5.56102C14.36 5.42173 14.1952 5.22376 14.0979 4.99213C14.0006 4.76051 13.9751 4.50564 14.0247 4.25974C14.0743 4.01385 14.1968 3.78799 14.3766 3.61071C14.5564 3.43343 14.7855 3.3127 15.0349 3.26379C15.2843 3.21488 15.5428 3.23999 15.7777 3.33593C16.0127 3.43187 16.2135 3.59434 16.3548 3.8028C16.496 4.01125 16.5714 4.25633 16.5714 4.50704C16.5714 4.84323 16.436 5.16565 16.1949 5.40337C15.9537 5.6411 15.6267 5.77465 15.2857 5.77465ZM9.92857 15.0704C8.89728 15.0704 7.88915 14.7689 7.03167 14.204C6.17418 13.6392 5.50586 12.8363 5.11121 11.8969C4.71655 10.9575 4.61328 9.92387 4.81447 8.92665C5.01567 7.92942 5.51228 7.01341 6.24151 6.29445C6.97074 5.57549 7.89984 5.08587 8.91131 4.88751C9.92278 4.68915 10.9712 4.79096 11.924 5.18006C12.8768 5.56915 13.6911 6.22807 14.2641 7.07348C14.837 7.91888 15.1429 8.91282 15.1429 9.92958C15.1429 11.293 14.5935 12.6006 13.6156 13.5647C12.6378 14.5288 11.3115 15.0704 9.92857 15.0704ZM9.92857 6.61972C9.26459 6.61972 8.61552 6.81384 8.06344 7.17753C7.51136 7.54122 7.08107 8.05815 6.82697 8.66295C6.57288 9.26775 6.5064 9.93325 6.63593 10.5753C6.76547 11.2174 7.0852 11.8071 7.55471 12.27C8.02421 12.7329 8.62241 13.0481 9.27363 13.1758C9.92485 13.3036 10.5999 13.238 11.2133 12.9875C11.8267 12.737 12.351 12.3127 12.7199 11.7684C13.0888 11.2241 13.2857 10.5842 13.2857 9.92958C13.2857 9.05175 12.932 8.20987 12.3024 7.58915C11.6729 6.96843 10.8189 6.61972 9.92857 6.61972Z" fill="white"/>
</svg>
