<svg width="151" height="35" viewBox="0 0 151 35" fill="none" xmlns="http://www.w3.org/2000/svg">
<path d="M32.7608 11.2801C32.595 11.0312 32.4291 10.8654 32.2632 10.6995L30.6874 9.12367C28.4481 6.88434 24.7988 6.88434 22.4765 9.12367L9.2894 22.3108C8.70884 22.8914 7.71358 22.8914 7.13302 22.3108L6.63539 21.8132C6.05482 21.2326 6.05482 20.2374 6.63539 19.6568L23.9694 2.32275C23.9694 2.32275 23.3059 2.40569 23.223 2.32275H16.5879C16.3391 2.48863 16.0074 2.73744 15.7586 2.98626L2.57143 16.1734C2.15674 16.5881 1.90792 16.9198 1.57617 17.3345V24.6331C1.82499 24.9648 2.0738 25.3795 2.40555 25.6283L2.7373 25.9601C5.39132 28.6141 9.78703 28.6141 12.524 25.9601L26.2917 12.1924L28.7798 14.6805L10.4505 33.1757L10.2017 33.4245C10.2847 33.5074 10.6164 33.3416 10.6993 33.4245H17.5832C17.6661 33.3416 17.7491 33.2586 17.832 33.1757L32.1803 18.8274C32.3462 18.6615 32.595 18.4127 32.6779 18.2468V11.2801H32.7608Z" fill="white"/>
<path d="M29.443 34.9994H4.97628C2.23933 34.9994 0 32.7601 0 30.0231V5.63936C0 2.90241 2.23933 0.663086 4.97628 0.663086H29.443C32.1799 0.663086 34.4193 2.90241 34.4193 5.63936V30.1061C34.3363 32.843 32.097 34.9994 29.443 34.9994ZM4.97628 1.90716C2.90283 1.90716 1.24407 3.56591 1.24407 5.63936V30.1061C1.24407 32.1795 2.90283 33.8383 4.97628 33.8383H29.443C31.5164 33.8383 33.1752 32.1795 33.1752 30.1061V5.63936C33.1752 3.56591 31.5164 1.90716 29.443 1.90716H4.97628Z" fill="white"/>
<path d="M85.676 26.6231C85.0954 26.6231 84.5149 26.5401 83.8514 26.4572C83.1879 26.3743 82.5244 26.0425 81.9438 25.5449C81.2803 24.9643 80.9485 24.3008 80.6997 23.4714C80.5339 22.6421 80.4509 21.8127 80.4509 20.9833V15.7582V10.1184H97.702L101.02 2.57108H80.4509V0H72.0742V2.57108H67.2638H48.9345C47.6075 2.57108 46.6122 2.73695 45.7829 3.15164C44.9535 3.56633 44.29 3.98102 43.7923 4.47865C42.88 5.39097 42.2995 6.38622 42.1336 7.46442C41.9677 8.54261 41.8848 9.53787 41.8848 10.5331C41.8848 11.6943 41.9677 12.8554 42.1336 14.0165C42.2995 15.2606 42.7971 16.3388 43.4606 17.2511C43.7923 17.6658 44.207 18.0805 44.7876 18.4952C45.3682 18.9099 46.0317 19.2416 46.944 19.4904L58.6382 22.725C59.1359 22.8909 59.5506 23.0568 59.9652 23.2226C60.3799 23.3885 60.5458 23.7203 60.5458 24.2179C60.5458 24.4667 60.4629 24.6326 60.2141 24.8814C60.0482 25.0473 59.5506 25.2131 58.8041 25.2131H42.1336V32.6776H62.7851C63.2828 32.6776 63.8633 32.6776 64.361 32.5946C64.8586 32.5946 65.4391 32.5117 65.9368 32.3458C66.4344 32.1799 67.015 32.0141 67.4297 31.6823C67.9273 31.3505 68.342 30.9359 68.8396 30.3553C69.5031 29.443 69.9178 28.4477 70.0837 27.3695C70.2495 26.2913 70.3325 25.2961 70.3325 24.3838C70.3325 23.8861 70.3325 23.3056 70.2495 22.725C70.1666 22.1444 70.0837 21.4809 70.0007 20.9004C69.8349 20.3198 69.669 19.6563 69.3372 19.0757C69.0884 18.4952 68.6737 17.9975 68.1761 17.4999C67.5955 16.9193 66.932 16.5047 66.1856 16.1729C65.3562 15.8412 64.6927 15.5923 64.0292 15.4265L53.8278 12.6895C53.2473 12.5236 52.6667 12.3578 52.0861 12.1089C51.5056 11.8601 51.2568 11.5284 51.2568 11.0307C51.2568 10.699 51.4226 10.3672 51.7544 10.2014C51.8373 10.1184 52.0032 10.1184 52.1691 10.0355C52.335 10.0355 52.7496 9.95256 53.3302 9.95256H67.0979H71.9083V15.5923V25.379C71.9083 26.3743 72.1571 27.4525 72.6547 28.4477C73.1524 29.443 73.8988 30.2724 74.8111 30.9359C75.3917 31.3505 75.9723 31.5994 76.6358 31.8482C77.2993 32.0141 77.9628 32.1799 78.5433 32.2629C79.2068 32.3458 79.7874 32.4287 80.368 32.4287C80.9485 32.4287 81.4462 32.4287 81.8609 32.4287H88.413L91.067 26.2913H85.676V26.6231Z" fill="white"/>
<path d="M113.627 3.98151C113.129 3.48389 112.548 3.15213 111.968 2.90332C111.387 2.65451 110.724 2.48863 110.06 2.40569C109.397 2.32275 108.65 2.32275 107.987 2.32275C106.826 2.32275 105.83 2.40569 105.084 2.57157C104.337 2.73744 103.674 2.98626 103.176 3.31801C102.679 3.64976 102.264 3.98151 101.932 4.47914C101.601 4.97677 101.352 5.4744 101.103 5.97202L89.9062 32.8439H100.191L102.596 26.6236H113.461L115.866 32.8439H126.15L114.871 5.97202C114.539 5.14264 114.124 4.47914 113.627 3.98151ZM104.835 19.6568L107.572 12.0265C107.655 11.9436 107.655 11.7777 107.738 11.6118C107.821 11.4459 107.904 11.363 107.904 11.363C107.987 11.363 107.987 11.4459 108.07 11.6118C108.153 11.7777 108.236 11.9436 108.236 12.0265L110.972 19.6568H104.835Z" fill="white"/>
<path d="M140.582 2.65472L133.532 23.0575C133.449 23.3063 133.366 23.4721 133.2 23.5551C133.117 23.638 133.035 23.721 132.952 23.721C132.869 23.721 132.786 23.638 132.703 23.5551C132.62 23.4721 132.454 23.3063 132.371 23.0575L125.321 2.57178H114.871L125.321 28.1996C125.57 28.8631 125.902 29.4437 126.234 30.1072C126.565 30.6877 127.063 31.1854 127.644 31.683C128.224 32.0977 128.971 32.5124 129.8 32.7612C130.629 33.01 131.625 33.1759 132.869 33.1759C134.113 33.1759 135.108 33.01 135.937 32.7612C136.767 32.5124 137.513 32.1806 138.011 31.683C138.591 31.2683 139.089 30.6877 139.421 30.1072C139.835 29.5266 140.167 28.8631 140.416 28.1996L150.866 2.57178H140.582V2.65472Z" fill="white"/>
</svg>
