<svg width="173" height="40" viewBox="0 0 173 40" fill="none" xmlns="http://www.w3.org/2000/svg">
<path d="M37.4407 12.891C37.2511 12.6066 37.0616 12.4171 36.872 12.2275L35.071 10.4265C32.5118 7.8673 28.3412 7.8673 25.6872 10.4265L10.6161 25.4976C9.95256 26.1611 8.81512 26.1611 8.15161 25.4976L7.58289 24.9289C6.91939 24.2654 6.91939 23.128 7.58289 22.4645L27.3933 2.65403C27.3933 2.65403 26.635 2.74881 26.5402 2.65403H18.9573C18.6729 2.8436 18.2938 3.12796 18.0094 3.41232L2.93834 18.4834C2.46441 18.9573 2.18005 19.3365 1.8009 19.8104V28.1517C2.08526 28.5308 2.36962 29.0047 2.74877 29.2891L3.12792 29.6682C6.16109 32.7014 11.1848 32.7014 14.3128 29.6682L30.0473 13.9336L32.8909 16.7772L11.9431 37.9147L11.6587 38.199C11.7535 38.2938 12.1327 38.1043 12.2274 38.199H20.0947C20.1895 38.1043 20.2843 38.0095 20.3791 37.9147L36.7772 21.5166C36.9668 21.327 37.2511 21.0427 37.3459 20.8531V12.891H37.4407Z" fill="#FF1F20"/>
<path d="M33.6493 40H5.6872C2.55924 40 0 37.4408 0 34.3128V6.4455C0 3.31753 2.55924 0.758293 5.6872 0.758293H33.6493C36.7772 0.758293 39.3365 3.31753 39.3365 6.4455V34.4076C39.2417 37.5355 36.6825 40 33.6493 40ZM5.6872 2.18009C3.31754 2.18009 1.4218 4.07583 1.4218 6.4455V34.4076C1.4218 36.7772 3.31754 38.673 5.6872 38.673H33.6493C36.019 38.673 37.9147 36.7772 37.9147 34.4076V6.4455C37.9147 4.07583 36.019 2.18009 33.6493 2.18009H5.6872Z" fill="#FF1F20"/>
<path d="M97.9147 30.4265C97.2512 30.4265 96.5877 30.3318 95.8294 30.237C95.0711 30.1422 94.3128 29.763 93.6493 29.1943C92.891 28.5308 92.5119 27.7725 92.2275 26.8246C92.0379 25.8768 91.9431 24.9289 91.9431 23.981V18.0095V11.564H111.659L115.45 2.93839H91.9431V0H82.3697V2.93839H76.872H55.9242C54.4076 2.93839 53.2702 3.12796 52.3223 3.6019C51.3744 4.07583 50.6161 4.54976 50.0474 5.11848C49.0047 6.16114 48.3412 7.29858 48.1517 8.5308C47.9621 9.76303 47.8673 10.9005 47.8673 12.0379C47.8673 13.3649 47.9621 14.6919 48.1517 16.019C48.3412 17.4408 48.91 18.673 49.6683 19.7156C50.0474 20.1896 50.5213 20.6635 51.1848 21.1374C51.8484 21.6114 52.6066 21.9905 53.6493 22.2749L67.0142 25.9716C67.5829 26.1611 68.0569 26.3507 68.5308 26.5403C69.0048 26.7299 69.1943 27.109 69.1943 27.6777C69.1943 27.9621 69.0995 28.1517 68.8152 28.436C68.6256 28.6256 68.0569 28.8152 67.2038 28.8152H48.1517V37.346H71.7536C72.3223 37.346 72.9858 37.346 73.5545 37.2512C74.1232 37.2512 74.7867 37.1564 75.3555 36.9668C75.9242 36.7772 76.5877 36.5877 77.0616 36.2085C77.6303 35.8294 78.1043 35.3554 78.673 34.6919C79.4313 33.6493 79.9052 32.5118 80.0948 31.2796C80.2844 30.0474 80.3792 28.91 80.3792 27.8673C80.3792 27.2986 80.3792 26.6351 80.2844 25.9716C80.1896 25.3081 80.0948 24.5498 80 23.8863C79.8104 23.2227 79.6209 22.4645 79.2417 21.8009C78.9574 21.1374 78.4834 20.5687 77.9147 20C77.2512 19.3365 76.4929 18.8626 75.6398 18.4834C74.692 18.1043 73.9337 17.8199 73.1754 17.6303L61.5166 14.5024C60.8531 14.3128 60.1896 14.1232 59.5261 13.8389C58.8626 13.5545 58.5782 13.1754 58.5782 12.6066C58.5782 12.2275 58.7678 11.8483 59.1469 11.6588C59.2417 11.564 59.4313 11.564 59.6209 11.4692C59.8104 11.4692 60.2844 11.3744 60.9479 11.3744H76.6825H82.1801V17.8199V29.0047C82.1801 30.1422 82.4645 31.3744 83.0332 32.5118C83.6019 33.6493 84.455 34.5972 85.4976 35.3554C86.1611 35.8294 86.8247 36.1137 87.583 36.3981C88.3412 36.5877 89.0995 36.7772 89.763 36.872C90.5213 36.9668 91.1848 37.0616 91.8484 37.0616C92.5119 37.0616 93.0806 37.0616 93.5545 37.0616H101.043L104.076 30.0474H97.9147V30.4265Z" fill="#FF1F20"/>
<path d="M129.858 4.54976C129.289 3.98104 128.626 3.6019 127.962 3.31754C127.299 3.03317 126.54 2.8436 125.782 2.74881C125.024 2.65403 124.171 2.65403 123.412 2.65403C122.085 2.65403 120.948 2.74881 120.095 2.93839C119.242 3.12796 118.483 3.41232 117.915 3.79147C117.346 4.17062 116.872 4.54976 116.493 5.11848C116.114 5.6872 115.829 6.25592 115.545 6.82464L102.749 37.5355H114.502L117.251 30.4265H129.668L132.417 37.5355H144.171L131.28 6.82464C130.9 5.87678 130.426 5.11848 129.858 4.54976ZM119.81 22.4645L122.938 13.7441C123.033 13.6493 123.033 13.4597 123.128 13.2701C123.223 13.0806 123.317 12.9858 123.317 12.9858C123.412 12.9858 123.412 13.0806 123.507 13.2701C123.602 13.4597 123.697 13.6493 123.697 13.7441L126.825 22.4645H119.81Z" fill="#FF1F20"/>
<path d="M160.664 3.03317L152.607 26.3507C152.512 26.6351 152.417 26.8246 152.228 26.9194C152.133 27.0142 152.038 27.109 151.943 27.109C151.848 27.109 151.754 27.0142 151.659 26.9194C151.564 26.8246 151.374 26.6351 151.28 26.3507L143.223 2.93839H131.28L143.223 32.2275C143.507 32.9858 143.886 33.6493 144.265 34.4076C144.645 35.0711 145.213 35.6398 145.877 36.2085C146.54 36.6825 147.393 37.1564 148.341 37.4408C149.289 37.7251 150.427 37.9147 151.848 37.9147C153.27 37.9147 154.408 37.7251 155.355 37.4408C156.303 37.1564 157.156 36.7773 157.725 36.2085C158.389 35.7346 158.957 35.0711 159.337 34.4076C159.81 33.7441 160.19 32.9858 160.474 32.2275L172.417 2.93839H160.664V3.03317Z" fill="#FF1F20"/>
</svg>
